# xmcd
#
# Track frame offsets: 
#        182
#        37150
#        69527
#        97507
#        110147
#        133495
#        164312
#        190682
#        211460
#        231352
#
# Disc length: 3220 seconds
#
# Revision: 3
# Processed by: cddbd v1.5.2PL0 Copyright (c) Steve Scherf et al.
# Submitted via: ExactAudioCopy v0.99pb3
#
DISCID=910c920a
DTITLE=Prem Joshua - Hamsafar
DYEAR=2000
DGENRE=New Age
TTITLE0=Mogul Gardens
TTITLE1=Mango Rain
TTITLE2=Deccan Queen
TTITLE3=Darbari
TTITLE4=Koregaon Morning
TTITLE5=Saki
TTITLE6=Bazaar Rumours
TTITLE7=That Silent Place
TTITLE8=Return of the Mystics
TTITLE9=Rickshaw to Paradise
EXTD=
EXTT0=
EXTT1=
EXTT2=
EXTT3=
EXTT4=
EXTT5=
EXTT6=
EXTT7=
EXTT8=
EXTT9=
PLAYORDER=
